<svg width="33" height="32" viewBox="0 0 33 32" fill="none" xmlns="http://www.w3.org/2000/svg">
<g clip-path="url(#clip0_875_224920)">
<rect x="0.5" width="32" height="32" rx="6.4" fill="white"/>
<g filter="url(#filter0_f_875_224920)">
<ellipse cx="9.89321" cy="14.0872" rx="9.89321" ry="14.0872" transform="matrix(0.985945 -0.16707 0.0998814 0.994999 -3.99854 7.9668)" fill="#2E43FF"/>
</g>
<g filter="url(#filter1_f_875_224920)">
<ellipse cx="11.0327" cy="18.3836" rx="11.0327" ry="18.3836" transform="matrix(0.985945 -0.16707 0.0998814 0.994999 12.0391 -6.71289)" fill="#4094FF"/>
</g>
</g>
<path d="M23.5 23L23.5 16L9.5 16L9.5 23L23.5 23Z" stroke="white" stroke-width="1.5" stroke-linecap="round" stroke-linejoin="round"/>
<path d="M16.5 9V18" stroke="white" stroke-width="1.5" stroke-linecap="round" stroke-linejoin="round"/>
<path d="M19.5 12L16.5 9L13.5 12" stroke="white" stroke-width="1.5" stroke-linecap="round" stroke-linejoin="round"/>
<path d="M9.5 16L9.5 23L23.5 23V16" stroke="white" stroke-width="1.5" stroke-linecap="round" stroke-linejoin="round"/>
<rect x="1.1" y="0.6" width="30.8" height="30.8" rx="5.8" stroke="#4094FF" stroke-width="1.2"/>
<defs>
<filter id="filter0_f_875_224920" x="-21.8938" y="-12.9852" width="58.1129" height="66.6305" filterUnits="userSpaceOnUse" color-interpolation-filters="sRGB">
<feFlood flood-opacity="0" result="BackgroundImageFix"/>
<feBlend mode="normal" in="SourceGraphic" in2="BackgroundImageFix" result="shape"/>
<feGaussianBlur stdDeviation="9.6" result="effect1_foregroundBlur_875_224920"/>
</filter>
<filter id="filter1_f_875_224920" x="-5.48027" y="-27.8504" width="60.4664" height="75.1715" filterUnits="userSpaceOnUse" color-interpolation-filters="sRGB">
<feFlood flood-opacity="0" result="BackgroundImageFix"/>
<feBlend mode="normal" in="SourceGraphic" in2="BackgroundImageFix" result="shape"/>
<feGaussianBlur stdDeviation="9.6" result="effect1_foregroundBlur_875_224920"/>
</filter>
<clipPath id="clip0_875_224920">
<rect x="0.5" width="32" height="32" rx="6.4" fill="white"/>
</clipPath>
</defs>
</svg>
